<?xml version="1.0" encoding="UTF-8" standalone="no"?>
<!-- Created with Inkscape (http://www.inkscape.org/) -->

<svg
   version="1.1"
   id="svg1"
   width="820"
   height="820"
   viewBox="0 0 820 820"
   sodipodi:docname="Logo_BerlinOpen.svg"
   inkscape:version="1.4.2 (ebf0e940, 2025-05-08)"
   xmlns:inkscape="http://www.inkscape.org/namespaces/inkscape"
   xmlns:sodipodi="http://sodipodi.sourceforge.net/DTD/sodipodi-0.dtd"
   xmlns="http://www.w3.org/2000/svg"
   xmlns:svg="http://www.w3.org/2000/svg">
  <defs
     id="defs1" />
  <sodipodi:namedview
     id="namedview1"
     pagecolor="#ffffff"
     bordercolor="#000000"
     borderopacity="0.25"
     inkscape:showpageshadow="2"
     inkscape:pageopacity="0.0"
     inkscape:pagecheckerboard="0"
     inkscape:deskcolor="#d1d1d1"
     inkscape:zoom="0.45347568"
     inkscape:cx="-106.95171"
     inkscape:cy="487.34697"
     inkscape:window-width="1312"
     inkscape:window-height="795"
     inkscape:window-x="138"
     inkscape:window-y="68"
     inkscape:window-maximized="0"
     inkscape:current-layer="g1" />

     <circle
      cx="410"
      cy="410"
      r="410"
      fill="#fff2bd"
   />
  <g
     inkscape:groupmode="layer"
     inkscape:label="Image"
     id="g1"
     transform="translate(117, 0)"
     >
    <path
       style="fill:#5a100e"
       d="m 291.15828,794.95276 c -3.61555,-4.59642 -3.03251,-9.09458 3.37715,-26.05502 10.75662,-28.46283 7.46124,-46.6388 -5.06724,-27.94884 -6.44706,9.61771 -16.95563,6.54762 -16.95563,-4.9536 0,-13.45021 21.647,-24.77913 34.57406,-18.09429 13.08656,6.76733 15.67755,21.01644 8.06455,44.3508 -3.74152,11.46799 -3.48583,11.91456 5.0799,8.87228 7.79775,-2.76952 12.82916,-0.76977 14.46534,5.74929 2.7932,11.12901 -36.25171,27.34257 -43.53813,18.07938 z m 51.14995,-29.74708 c -16.96841,-8.39932 -21.01744,-35.88412 -7.13418,-48.42681 15.33267,-13.85215 37.14745,-1.46679 39.62047,22.49455 2.12695,20.60813 -15.23829,34.46996 -32.48629,25.93226 z m 13.93766,-17.52344 c 2.26555,-2.26555 1.9848,-10.59061 -0.4756,-14.10333 -3.97258,-5.67165 -11.25773,-3.04585 -11.25773,4.05765 0,8.72671 7.03186,14.74715 11.73333,10.04568 z m 29.03058,16.84009 c -4.286,-4.28599 -4.01154,-8.4971 1.63795,-25.13191 7.17646,-21.13095 8.59733,-27.72665 6.92214,-32.13273 -1.87877,-4.94155 -7.67804,-4.12781 -11.30598,1.58643 -5.21381,8.21209 -13.40255,8.36189 -16.73932,0.30622 -4.39117,-10.60121 9.43309,-25.20144 23.86205,-25.20144 22.12285,0 28.24566,21.93208 15.4054,55.18255 -0.87211,2.25837 -0.50624,2.42124 3.57448,1.59116 14.53142,-2.9559 17.48213,-2.14356 19.35768,5.32924 2.32985,9.28287 -35.53051,25.65438 -42.7144,18.47048 z M 47.693894,732.42043 c 0.51396,-14.55934 2.08694,-56.47153 3.49549,-93.13819 1.40856,-36.66667 3.87313,-106.73154 5.47682,-155.69971 l 2.9158,-89.03303 -2.81858,-3.00024 c -2.27462,-2.42122 -2.81553,-4.66639 -2.80279,-11.63363 0.009,-4.74837 -0.006,-10.48631 -0.0317,-12.751 -0.0312,-2.70517 1.08982,-5.18605 3.26808,-7.23241 2.89544,-2.72013 3.31557,-4.25286 3.31557,-12.096 v -8.98118 l -8.33334,-4.55812 c -27.70716,-15.15513 -31.59296,-53.50521 -7.56447,-74.65597 5.86664,-5.16403 7.89781,-7.85123 7.89781,-10.44867 0,-1.92321 1.2,-4.58273 2.66666,-5.91004 4.427,-4.00638 3.82701,-17.64127 -0.94367,-21.44528 -5.48387,-4.37269 -3.26561,-12.90578 3.61034,-13.88806 4.93897,-0.70556 7.19957,-5.33376 4.11289,-8.42044 -2.26953,-2.26953 -1.70163,-6.89523 1.31777,-10.73378 3.59255,-4.56719 5.60082,-54.32696 2.56397,-63.52871 -1.50774,-4.56851 -1.46718,-5.63123 0.29179,-7.64492 2.85151,-3.26444 4.66593,-40.183381 2.17117,-44.178116 -1.39436,-2.232733 -1.3097,-3.838113 0.48006,-9.102435 1.32302,-3.891513 2.47146,-13.139625 2.93604,-23.643297 0.74091,-16.75119 1.90726,-21.586539 4.30915,-17.864475 1.18671,1.838971 2.44218,26.58039 3.47338,68.44951 0.3251,13.200003 1.04282,26.179133 1.59493,28.842513 0.64495,3.11126 0.48157,5.1653 -0.45699,5.74536 -3.54635,2.19176 -1.83729,57.40562 1.94964,62.98597 2.28863,3.37249 3.11406,5.91382 2.50939,7.72588 -1.96286,5.88222 -1.36286,10.6126 1.41348,11.14374 6.207336,1.18752 9.132066,13.81796 3.666656,15.83446 -5.219156,1.92564 -6.223376,13.62632 -1.666656,19.41924 1.466656,1.86456 2.666656,5.12998 2.666656,7.25648 0,3.06357 1.23858,4.73938 5.96517,8.07099 26.07913,18.38227 22.30659,60.09275 -6.92737,76.59137 -9.164136,5.17192 -10.029936,11.02185 -2.305766,15.57922 5.678766,3.35056 8.787736,9.95612 7.736086,16.43668 -1.5694,9.67111 30.35083,23.13208 62.86522,26.51067 18.21176,1.89239 18.40881,1.79227 25.23918,-12.82432 69.75543,-149.27253 295.273,-68.9804 252.82657,90.01508 -1.46832,5.5 -2.68379,10.53215 -2.70105,11.18255 -0.16885,6.36282 32.29749,-5.3457 42.23827,-15.23263 l 5.60299,-5.57263 -0.74155,-8.18864 c -0.77245,-8.52992 -0.0902,-10.04798 6.5542,-14.58326 4.27874,-2.92056 -2.15038,-27.18159 -9.02476,-34.05597 -0.28605,-0.28605 -2.15449,0.76551 -4.15207,2.33681 -4.36414,3.43284 -7.50758,1.75398 -4.80841,-2.56808 2.54543,-4.07588 2.07246,-5.64701 -1.17653,-3.90821 -4.06106,2.17341 -6.44371,-0.4815 -3.42535,-3.81676 3.0008,-3.31584 2.92647,-3.63407 -2.35404,-10.07824 -5.54962,-6.77258 -6.87913,-10.06193 -10.23146,-25.31382 -4.89683,-22.27877 -23.10525,-45.64956 -29.80133,-38.25048 -2.79926,3.09314 -6.04467,3.58854 -6.04467,0.92268 0,-0.98635 1.2,-2.87934 2.66667,-4.20665 3.47981,-3.1492 3.549,-6.45975 0.1122,-5.36895 -4.25371,1.35008 -4.29418,-1.37846 -0.0858,-5.78216 2.4819,-2.59707 3.97356,-5.56582 3.97356,-7.9083 0,-42.20975 87.17702,-52.09502 99.29444,-11.2593 0.492,1.65804 2.65202,3.92345 4.80005,5.03424 4.5108,2.33262 5.52145,6.64371 1.23884,5.28447 -4.14065,-1.3142 -3.19486,1.82346 1.32491,4.39534 5.20335,2.96086 5.42811,6.26225 0.34176,5.02003 -8.08291,-1.97407 -8.1874,-1.90143 -13.30855,9.25129 -5.4237,11.81163 -5.7837,15.79976 -3.73736,41.40234 0.97788,12.23457 0.81689,13.9772 -1.84766,20 l -2.91889,6.59766 3.55076,2.83199 c 4.02126,3.20726 2.53991,5.27857 -2.81408,3.9348 -4.46619,-1.12094 -4.32576,2.2266 0.21832,5.204 4.55624,2.98536 2.33817,5.95045 -2.72542,3.64333 -6.06433,-2.7631 -7.3999,6.93932 -3.51064,25.5035 3.21179,15.33044 3.3144,15.54905 7.29889,15.54905 3.88205,0 7.4613,3.92002 7.4613,8.17165 0,1.81226 0.52274,3.86502 1.16164,4.56168 3.69529,4.0294 2.88762,18.15076 -1.25972,22.02495 l -4.08591,3.81682 8.1815,44.37912 c 24.68416,133.89489 27.85108,149.25772 32.73953,158.8205 4.52392,8.84967 0.76324,14.327 -10.47676,15.2591 -9.54971,0.79194 -10.03004,-0.0688 -10.6546,-19.0927 -0.39488,-12.02781 -2.19403,-24.61494 -7.32895,-51.27445 -3.74305,-19.43334 -11.06749,-58.43334 -16.2765,-86.66667 -11.44616,-62.03923 -10.27512,-57.25039 -14.38154,-58.81165 -2.82819,-1.07528 -4.50016,-0.53797 -10.29156,3.3073 -17.88371,11.87412 -36.37167,18.17102 -53.35087,18.17102 h -9.5972 l -5.13744,8.33333 c -31.59305,51.24637 -107.52031,74.19816 -164.17476,49.62781 l -8.19814,-3.55543 -15.76767,13.62854 c -23.20865,20.06002 -47.74784,36.42056 -84.76768,56.51552 -6.41666,3.48307 -11.66666,7.10334 -11.66666,8.04506 0,3.82795 -5.40737,8.58204 -10.22929,8.99344 -4.40476,0.37581 -4.96975,0.90186 -6.4767,6.03034 -3.92597,13.36097 -12.00395,22.45063 -20.68573,23.2764 l -4.60828,0.43832 0.6205,32 c 0.98211,50.64769 1.02553,49.22259 -1.51489,49.71929 -3.620046,0.70779 -4.630636,-30.2262 -9.290686,-284.38596 -1.62105,-88.41222 -1.41105,-84.54832 -4.45759,-82.01992 -1.12224,0.93138 -3.98674,2.09022 -6.36555,2.57521 l -4.32512,0.88179 -0.8651,23.94813 c -0.47581,13.17147 -1.54469,45.84813 -2.37529,72.61479 -0.8306,26.76667 -2.37324,71.16667 -3.4281,98.66667 -1.05486,27.5 -2.59419,69.8 -3.42074,94 -2.31295,67.71943 -2.74334,73.20698 -5.78735,73.7896 -2.45812,0.47049 -2.51196,-0.39918 -1.60876,-25.98474 z M 547.96799,686.1115 c 1.74134,-4.53785 -1.47731,-10.82926 -5.54019,-10.82926 -3.91259,0 -4.97241,4.47685 -2.60405,11 0.81985,2.25812 7.26404,2.12302 8.14424,-0.17074 z M 100.87153,667.45063 c 4.31922,-4.00291 8.39391,-11.94638 10.42467,-20.32253 2.05719,-8.48517 2.8851,-9.24941 7.81006,-7.20942 4.22943,1.75188 8.99071,-0.0728 7.3054,-2.79972 -0.40602,-0.65695 -1.50203,-4.93897 -2.43558,-9.51559 -2.1508,-10.54407 -6.04287,-11.83868 -7.98032,-2.65447 -0.92708,4.39468 -1.79804,5.66667 -3.88011,5.66667 -7.15086,0 -18.4867,14.19977 -20.99979,26.30524 -2.573676,12.39736 2.1912,17.54034 9.75567,10.52982 z m 441.24888,-2.97492 c -0.21569,-2.12308 -3.93864,-23.06014 -8.27323,-46.52681 -4.3346,-23.46666 -11.54429,-62.76666 -16.02154,-87.33333 -8.24266,-45.22745 -8.92918,-48.09425 -11.74168,-49.03175 -2.53902,-0.84635 -2.01722,2.94991 7.173,52.18501 4.80943,25.76571 12.32493,66.04674 16.70111,89.51341 4.37619,23.46666 8.24152,43.46656 8.58963,44.44421 1.16212,3.26377 3.97455,0.70481 3.57271,-3.25074 z M 93.30272,636.59826 c 0.81862,-3.26161 -1.18757,-7.31602 -3.62008,-7.31602 -0.64354,0 -1.170066,2.4 -1.170066,5.33333 0,6.16224 3.389076,7.56501 4.790146,1.98269 z m 12.24505,-8.99868 c 3.03955,-3.23544 6.9648,-16.22152 6.9648,-23.04192 0,-5.60849 1.02035,-6.27774 5.51931,-3.62013 9.58339,5.66104 9.07731,-6.67189 -0.78111,-19.03552 -3.63078,-4.55344 -6.07153,-3.43096 -6.07153,2.79225 0,4.95416 -2.40218,6.11981 -5.33334,2.58798 -9.31751,-11.22692 -18.362626,9.78142 -12.70369,29.50581 3.93834,13.72722 7.08782,16.47201 12.40556,10.81153 z m 40.17826,-5.19793 c 34.28225,-18.44767 59.14964,-35.55569 86.78653,-59.70651 15.94609,-13.93468 17.95963,-15.07441 19.28031,-10.91332 3.39883,10.70877 58.23212,16.64229 84.99041,9.19682 C 480.09623,521.10196 456.02631,313.6644 307.61582,309.60981 l -22.89674,-0.62554 -12.43659,4.30312 c -82.09333,28.40464 -117.42023,117.04686 -75.70424,189.95699 7.58497,13.25682 29.40058,36.70452 34.14968,36.70452 10.4779,0 -39.78042,40.43371 -87.16791,70.12813 -15.0338,9.42063 -15.53605,9.94534 -14.41316,15.05781 1.18742,5.4063 1.57052,5.34314 16.57917,-2.73319 z M 255.73281,518.05369 c -4.41922,-1.92413 -9.88691,-7.98044 -9.88691,-10.95126 0,-2.70249 1.78693,-2.25692 9.04613,2.25565 4.43023,2.75398 8.99937,4.32795 14.08859,4.8532 7.41048,0.76483 10.04157,3.15595 5.42289,4.9283 -3.65465,1.40243 -14.38966,0.77807 -18.6707,-1.08589 z m 13.32688,-12.88324 c -19.88333,-4.71815 -32.54713,-21.87628 -32.54713,-44.09799 0,-6.70665 -0.69118,-10.19275 -2.66168,-13.42466 -3.08921,-5.06677 -3.50644,-10.36556 -0.81619,-10.36556 1.0205,0 2.21953,1.45058 2.66451,3.22352 5.56807,22.18498 76.66625,45.35603 85.1105,27.73769 2.58808,-5.39986 4.29731,-4.34463 5.04918,3.11725 0.67143,6.66352 4.15637,13.92154 6.68442,13.92154 0.71643,0 1.30259,0.9 1.30259,2 0,2.58884 -2.62642,2.54649 -6.40959,-0.10335 -2.83911,-1.98859 -3.26071,-1.87703 -7.72732,2.0447 -14.59875,12.81787 -35.7591,19.48018 -50.64929,15.94686 z m 20.01148,-7.01621 c 8.14417,-1.91065 9.15794,-4.29085 2.93498,-6.89097 -10.19514,-4.25981 -33.01972,-0.30717 -27.88379,4.82877 3.54085,3.54085 14.71064,4.46411 24.94881,2.0622 z m 24.3975,-11.6402 c 10.02457,-7.56863 9.05641,-8.43042 -9.03462,-8.04202 -22.60567,0.48533 -40.1312,-4.11779 -55.23057,-14.50643 -5.12086,-3.52325 -6.17695,-3.83685 -6.86682,-2.03908 -2.17301,5.66277 2.96066,19.93063 9.29977,25.84659 l 3.38337,3.15753 6.41305,-3.15753 c 9.53638,-4.69534 26.42125,-4.54423 35.74638,0.31991 8.77433,4.57684 8.04213,4.64781 16.28944,-1.57897 z m 28.42292,-34.22831 c -4.99156,-2.3568 -10.34764,-3.63729 -17,-4.06421 -9.84413,-0.63176 -12.16986,-2.07095 -6.70456,-4.14885 2.52533,-0.96013 3.26588,-2.76561 4.61668,-11.25546 3.8374,-24.11842 21.53418,-41.4309 34.98959,-34.22979 8.27603,4.4292 5.77786,22.67171 -3.11067,22.71523 -7.59935,0.0372 -8.49853,1.8275 -3.67633,7.31967 l 4.296,4.89288 -4.14793,7.34974 c -3.79544,6.72515 -3.97063,7.54564 -2.06154,9.65517 5.24263,5.79303 2.66638,6.42469 -7.20124,1.76562 z m -81.18772,-9.04713 c -5.05828,-4.25625 -7.43357,-10.93548 -5.60206,-15.75273 2.2024,-5.79275 -9.58966,-15.53697 -18.80221,-15.53697 -3.46002,0 -3.06738,-3.72439 0.44706,-4.2406 2.35265,-0.34556 3.17867,-1.81174 4.37147,-7.7594 5.35668,-26.70986 28.87869,-43.39558 36.26258,-25.72344 4.2945,10.27818 -0.0965,19.26421 -8.84025,18.09142 -6.44084,-0.8639 -7.18657,1.45236 -2.0279,6.29869 4.18638,3.9329 4.1674,5.43526 -0.16199,12.8228 -4.01923,6.8583 -3.9,7.15438 3.26829,8.11585 4.91937,0.65982 5.49098,0.39645 7.47769,-3.44544 2.52025,-4.87361 4.75144,-5.41908 4.74436,-1.15988 -0.006,3.43479 -4.64802,11.66667 -6.57934,11.66667 -0.70961,0 -2.79385,-0.68511 -4.63165,-1.52247 -10.67397,-4.86338 -13.96503,11.41863 -3.41116,16.87624 2.17826,1.12643 3.96047,2.63264 3.96047,3.34714 0,2.54033 -6.52514,1.24602 -10.47536,-2.07788 z m 113.43914,-50.97423 c -3.1466,-5.89121 -12.37828,-13.6488 -16.24233,-13.6488 -5.06859,0 -7.18146,-3.13648 -4.41464,-6.55337 6.91337,-8.53765 25.23075,7.40772 24.10142,20.9804 l -0.40823,4.9063 z M 255.17923,352.7969 c 0,-7.0072 23.71674,-13.29452 31.33058,-8.30574 6.79518,4.45237 3.14638,11.19514 -4.36078,8.05844 -5.97355,-2.49591 -15.11216,-2.46744 -21.17546,0.066 -5.82773,2.43498 -5.79434,2.43394 -5.79434,0.18133 z M 139.31205,606.24664 c 28.83981,-18.10619 83.09205,-58.62179 82.17709,-61.3699 -1.11208,-3.34013 -4.66788,-2.02098 -15.47888,5.74241 -12.05725,8.65833 -39.24182,25.52867 -61.16436,37.9577 -9.83644,5.57679 -13.66666,8.45996 -13.66666,10.28747 0,3.6423 -5.95438,9.08458 -9.9394,9.08458 -3.88469,0 -4.71579,3.45904 -1.0606,4.41424 5.6033,1.46429 8.56727,0.51676 19.13281,-6.1165 z m 5.71127,-24.24164 c 38.83734,-22.42176 67.48925,-41.00657 67.48925,-43.77632 0,-1.6938 -7.98442,-10.27978 -9.55955,-10.27978 -2.79009,0 -79.77378,50.11624 -79.77378,51.93258 0,10.23248 6.67445,10.88132 21.84408,2.12352 z m -51.66316,-0.0479 c 2.10049,-1.09548 5.33547,-1.99548 7.18883,-2 2.08145,-0.005 4.73556,-1.56471 6.94222,-4.07947 3.08669,-3.51766 4.18713,-3.95595 8.09278,-3.22325 4.12899,0.77461 7.01413,-0.7486 33.32782,-17.59541 15.84414,-10.14388 33.336,-21.2759 38.87081,-24.73781 11.37277,-7.11346 11.73599,-8.12728 5.93337,-16.56109 -14.4648,-21.02387 -21.4679,-44.81525 -21.92289,-74.47785 l -0.32724,-21.33334 -14.59884,-2.14686 c -17.68096,-2.6001 -36.01703,-7.70288 -50.35445,-14.01321 -17.23775,-7.58686 -17.960216,-7.78447 -20.215376,-5.52932 -2.6702,2.67021 0.0456,187.68939 2.755036,187.68939 0.26887,0 2.20744,-0.8963 4.30793,-1.99178 z m 354.80906,-84.01011 c 10.28202,-2.42431 23.14013,-8.1719 33.15936,-14.82229 5.16362,-3.42741 8.86163,-4.94854 11.53515,-4.74482 4.89453,0.37295 4.16929,-11.04168 -1.40065,-22.04503 -2.71878,-5.37091 -1.32887,-6.91156 3.60563,-3.99668 5.61972,3.31966 8.48265,-0.12803 4.52635,-5.45086 -6.53456,-8.79163 -14.4445,-4.70655 -13.14402,6.78822 1.76514,15.60173 -18.16726,30.9783 -44.85381,34.60184 -11.9032,1.61624 -14.41801,3.3141 -14.41801,9.73425 0,2.58408 9.88532,2.55364 20.99,-0.0646 z m 66.42183,-23.90835 c 1.91985,-1.41697 2.2016,-2.30277 1.09111,-3.43039 -2.07511,-2.10712 -12.50294,0.72193 -12.50294,3.39203 0,2.58179 7.92964,2.60845 11.41183,0.0384 z m -0.98927,-10.97651 c 3.88946,-2.4656 1.58659,-6.36374 -2.94414,-4.98363 -9.22015,2.80855 -11.82626,4.51136 -10.09578,6.59646 1.95159,2.35152 7.95816,1.6086 13.03992,-1.61283 z m -1.67681,-11.2412 c 1.40903,-2.27986 -3.03668,-6.11444 -4.91327,-4.23786 -0.83594,0.83594 -1.15906,2.46023 -0.71803,3.60952 0.92278,2.40473 4.3005,2.78162 5.6313,0.62834 z m -12.79259,-16.87205 c -0.13153,-10.29702 -5.03127,-25.033 -7.50199,-22.56228 -1.198,1.198 2.15363,22.37558 3.88731,24.56228 2.1671,2.7334 3.66456,1.90485 3.61468,-2 z M 174.33885,407.61557 c 1.76473,-6.58505 1.14447,-7.66667 -4.39647,-7.66667 -35.827,0 -82.099936,-18.9026 -79.54975,-32.49625 2.35877,-12.57334 -9.493886,-17.99609 -14.838306,-6.78872 -3.13208,6.56804 -0.85499,8.62311 5.3236,4.80453 l 4.56056,-2.81858 -0.64122,13.31618 -0.64122,13.31618 h 3.99049 c 2.194766,0 8.521976,2.09368 14.060466,4.65262 30.39433,14.04304 70.02064,21.55867 72.13185,13.68071 z m 320.34375,-2.02042 c 0.82686,-0.53877 1.92773,-3.67958 2.44639,-6.97958 0.51866,-3.3 2.69214,-9.42542 4.82996,-13.61205 4.93252,-9.65968 4.90218,-9.75614 -1.1614,-3.69255 -12.02374,12.02374 -28.26128,9.37089 -36.38617,-5.9447 -3.89213,-7.33672 -6.07626,-8.06927 -3.23212,-1.08403 1.11971,2.75 5.84253,8.6 10.49517,13 4.65263,4.4 9.75676,10.55 11.3425,13.66666 2.88985,5.67983 7.35196,7.45701 11.66567,4.64625 z M 71.845904,386.61557 c 0,-1.44004 -1.77321,-2.11378 -6.33333,-2.40639 -6.10209,-0.39155 -8.29201,1.3366 -5.38171,4.24691 1.83485,1.83485 11.71504,0.2826 11.71504,-1.84052 z m 413.999986,-5.25464 c 0,-0.69006 -0.6,-1.62547 -1.33333,-2.07869 -0.73334,-0.45323 -1.33334,0.11136 -1.33334,1.25464 0,1.14328 0.6,2.07869 1.33334,2.07869 0.73333,0 1.33333,-0.56459 1.33333,-1.25464 z M 73.671074,376.82622 c 2.23527,-2.69332 0.46368,-3.54398 -7.38073,-3.54398 -5.24618,0 -7.11111,0.49537 -7.11111,1.88889 0,3.54495 11.80451,4.89314 14.49184,1.65509 z m 405.487736,-2.54398 c -0.027,-3.96631 -1.98001,-6.90248 -3.83052,-5.7588 -1.61468,0.99793 -2.02498,6.43844 -0.59351,7.86991 1.92942,1.92942 4.44336,0.72979 4.42403,-2.11111 z m 11.2341,-3.169 c 0.84698,-2.20721 -1.25168,-5.831 -3.37695,-5.831 -0.64354,0 -1.17007,1.4 -1.17007,3.11111 0,4.93776 3.00596,6.73583 4.54702,2.71989 z m 10.11965,-3.08565 c 0,-3.04583 -2.10217,-4.73743 -3.35936,-2.70325 -1.12004,1.81226 0.18455,5.29123 1.98418,5.29123 0.75634,0 1.37518,-1.16459 1.37518,-2.58798 z M 68.263384,364.9489 c 0.34546,-1.81254 -0.46989,-2.33333 -3.65305,-2.33333 -3.89327,0 -5.44215,2.21117 -3.15263,4.50069 1.70077,1.70077 6.35067,0.21995 6.80568,-2.16736 z m 402.372656,-0.35064 c 0.90745,-3.61557 -1.26079,-7.31602 -4.28674,-7.31602 -2.15979,0 -2.34423,2.49161 -0.53641,7.24653 1.65315,4.34812 3.74173,4.37821 4.82315,0.0695 z m 12.54318,-6.74094 c 0,-2.97576 -4.03892,-5.32996 -5.41453,-3.15601 -2.96028,4.67825 0.57629,11.3546 3.73004,7.04159 0.92647,-1.26702 1.68449,-3.01553 1.68449,-3.88558 z m 10.41781,-2.24175 c -0.2659,-2.75781 -1.13833,-4.33333 -2.39955,-4.33333 -2.55766,0 -3.37371,4.23016 -1.29843,6.73072 2.64141,3.1827 4.1422,2.20975 3.69798,-2.39739 z M 77.179234,345.6695 v -6.38726 h -5.33333 -5.33333 l -0.40613,7.87632 c -0.48513,9.4084 1.17648,11.1641 7.04763,7.44676 3.56316,-2.25604 4.02516,-3.28168 4.02516,-8.93582 z m 431.333326,10.35809 c 0,-0.69005 -0.6,-1.62546 -1.33334,-2.07869 -0.73333,-0.45322 -1.33333,0.11137 -1.33333,1.25465 0,1.14328 0.6,2.07869 1.33333,2.07869 0.73334,0 1.33334,-0.56459 1.33334,-1.25465 z m -35.28291,-5.5709 c 1.01532,-3.19898 -1.66826,-9.17445 -4.12022,-9.17445 -2.60392,0 -3.35362,5.66393 -1.18733,8.9701 2.47953,3.78425 4.15091,3.8486 5.30755,0.20435 z m 12.39301,-5.68233 c 0.45555,-2.34938 -1.92591,-6.15879 -3.85018,-6.15879 -1.98187,0 -2.83619,5.43404 -1.16997,7.44172 2.00853,2.42013 4.4217,1.80343 5.02015,-1.28293 z m 21.55656,2.58657 c 0,-0.32339 -0.6,-0.9588 -1.33333,-1.41203 -0.73333,-0.45322 -1.33333,-0.18863 -1.33333,0.58798 0,0.77661 0.6,1.41202 1.33333,1.41202 0.73333,0 1.33333,-0.26459 1.33333,-0.58797 z m -9.33333,-3.15719 c 0,-1.3265 -0.8886,-3.5765 -1.97466,-5 -2.72559,-3.5724 -5.07915,-0.22999 -3.02014,4.28905 1.68139,3.69023 4.9948,4.16186 4.9948,0.71095 z m -35.33333,-7.68102 c 0,-2.62624 -0.75016,-4.0151 -2.33334,-4.31999 -2.44073,-0.47004 -3.13434,2.77402 -1.50239,7.02681 1.29708,3.38013 3.83573,1.58864 3.83573,-2.70682 z m -11.54252,0.1662 c -0.81694,-1.79299 -2.34185,-3.58865 -3.38868,-3.99036 -1.25102,-0.48006 -0.92953,0.6372 0.93806,3.25998 3.44325,4.83561 4.45902,5.13834 2.45062,0.73038 z m 25.31202,-3.25488 c 0.45314,-3.08831 -2.93752,-9.48514 -5.02763,-9.48514 -2.58521,0 -3.05963,8.10558 -0.63147,10.78866 2.87872,3.18096 5.07534,2.67499 5.6591,-1.30352 z m 12.71873,-0.83427 c 1.02246,-2.66449 -1.77016,-8.65087 -4.03559,-8.65087 -2.24727,0 -2.38807,6.86457 -0.18598,9.06667 2.13082,2.13082 3.28808,2.01684 4.22157,-0.4158 z m -397.36333,-5.1128 c 15.96898,-11.00237 8.44975,-16.8714 -21.615186,-16.8714 -24.48362,0 -32.78345,4.80805 -23.11339,13.38948 13.00652,11.54228 30.997,12.94276 44.728576,3.48192 z m 407.54176,1.71658 c 0,-0.69006 -0.6,-1.25465 -1.33333,-1.25465 -0.73333,0 -1.33333,0.93541 -1.33333,2.07869 0,1.14328 0.6,1.70787 1.33333,1.25465 0.73333,-0.45323 1.33333,-1.38864 1.33333,-2.07869 z m 8,0.18774 c 0,-1.40669 0.34531,-3.65669 0.76734,-5 0.61236,-1.9491 0.51029,-2.03845 -0.50538,-0.44239 -2.24983,3.53546 -3.19025,8 -1.68514,8 0.78275,0 1.42318,-1.15092 1.42318,-2.55761 z m -54.66666,-4.77572 c 0,-1.1 -0.6,-2 -1.33334,-2 -0.73333,0 -1.33333,0.9 -1.33333,2 0,1.1 0.6,2 1.33333,2 0.73334,0 1.33334,-0.9 1.33334,-2 z m 12.52401,-0.10905 c 1.25079,-3.2595 0.95767,-8.30855 -0.53594,-9.23166 -2.85633,-1.7653 -6.65474,0.80164 -6.65474,4.49723 0,5.85555 5.3969,9.40894 7.19068,4.73443 z m 15.47599,-8.03674 c 0,-3.6445 -1.78561,-5.85421 -4.73063,-5.85421 -4.62162,0 -5.13835,2.15189 -1.80994,7.53736 2.98075,4.82296 6.54057,3.90688 6.54057,-1.68315 z m 14.40074,-0.38221 c -0.27392,-2.33963 -1.55294,-3.82573 -4.04139,-4.6957 -5.12061,-1.79018 -5.63284,-0.5262 -2.37482,5.86006 3.17809,6.22956 7.19649,5.50034 6.41621,-1.16436 z m -47.40074,0.67194 c 2.74417,-2.08313 3.13372,-7.47727 0.53998,-7.47727 -2.72105,0 -6.63425,4.96252 -5.74354,7.28367 0.9521,2.48113 2.13227,2.52504 5.20356,0.1936 z m 55.66666,0.60142 c 0,-0.69006 -0.6,-1.62547 -1.33333,-2.07869 -0.73333,-0.45323 -1.33333,0.11136 -1.33333,1.25464 0,1.14328 0.6,2.07869 1.33333,2.07869 0.73333,0 1.33333,-0.56459 1.33333,-1.25464 z m -396.66665,-9.1898 c 0,-2.6101 -2.59804,-2.38894 -3.10908,0.26466 -0.31188,1.61947 0.14682,2.27831 1.31507,1.88889 0.98671,-0.3289 1.79401,-1.298 1.79401,-2.15355 z M 39.845904,307.9489 c -0.45322,-0.73333 -1.38863,-1.33333 -2.07869,-1.33333 -0.69005,0 -1.25464,0.6 -1.25464,1.33333 0,0.73334 0.93541,1.33334 2.07869,1.33334 1.14328,0 1.70787,-0.6 1.25464,-1.33334 z m 405.999986,-7.19491 c 0,-3.78839 -4.16941,-7.65767 -6.32443,-5.86917 -3.35181,2.78176 -5.61666,9.34946 -4.16166,12.06815 1.39453,2.60571 10.48609,-2.76888 10.48609,-6.19898 z m 15.98918,6.13845 c 2.61596,-2.11827 2.71817,-2.58325 0.89961,-4.09252 -2.715,-2.25326 -7.55546,0.22132 -7.55546,3.86256 0,3.26555 2.7881,3.36188 6.65585,0.22996 z m 46.13583,0.85419 c 1.13136,-1.83058 -2.97238,-5.13106 -6.37985,-5.13106 -3.08059,0 -3.13237,3.44782 -0.0785,5.22653 3.10413,1.808 5.30201,1.77551 6.45834,-0.0955 z M 47.468124,303.70446 c -2.03668,-2.03668 -3.53952,-0.53385 -2.40989,2.4099 0.66697,1.7381 1.24522,1.91033 2.43138,0.72417 1.18616,-1.18617 1.18105,-1.93153 -0.0215,-3.13407 z m 51.044446,2.91111 c 1.43581,-2.32319 -0.69238,-4.30518 -2.77069,-2.58034 -1.02664,0.85204 -1.53781,2.08117 -1.13594,2.73142 0.97264,1.57376 2.88636,1.49975 3.90663,-0.15108 z m -9.733336,-4.26667 c -1.24444,-1.24444 -1.96789,-1.2321 -3.25552,0.0555 -1.31847,1.31848 -1.25288,1.90437 0.32219,2.87782 2.67378,1.65248 5.096466,-0.7702 2.93333,-2.93334 z m -30.93333,0.93334 c 0,-1.1 -0.9,-2 -2,-2 -1.1,0 -2,0.9 -2,2 0,1.1 0.9,2 2,2 1.1,0 2,-0.9 2,-2 z m 11.1682,-0.0505 c 0.45597,-1.18821 -0.0824,-2.38404 -1.2803,-2.84371 -2.48982,-0.95543 -5.2143,1.41469 -3.9597,3.44468 1.30837,2.11699 4.33001,1.77045 5.24,-0.60097 z m 10.15204,0.0662 c 1.33715,-1.61116 1.22565,-2.14581 -0.59303,-2.84371 -2.62701,-1.00808 -5.42805,1.28193 -4.13235,3.37843 1.2304,1.99081 2.77438,1.8161 4.72538,-0.53472 z m 414.013076,-1.46022 c 0,-2.64176 -4.40304,-4.12033 -8.07449,-2.71147 -2.64839,1.01629 -0.93872,4.55702 2.52056,5.22007 4.362,0.83608 5.55393,0.2977 5.55393,-2.5086 z m -14.98075,1.31409 c 1.79001,-1.78994 -0.88377,-4.53624 -4.41654,-4.53624 -3.97292,0 -5.99095,1.75378 -4.60271,4 0.88919,1.43873 7.71117,1.84439 9.01925,0.53631 z M 37.179234,297.50446 c 0,-2.6101 -2.59804,-2.38893 -3.10907,0.26467 -0.31188,1.61946 0.14681,2.2783 1.31507,1.88889 0.9867,-0.3289 1.794,-1.29801 1.794,-2.15356 z m 72.666666,0.44444 c 0,-1.1 -0.9,-2 -2,-2 -1.1,0 -2,0.9 -2,2 0,1.1 0.9,2 2,2 1.1,0 2,-0.9 2,-2 z m 326.18411,-5.92315 c 17.46843,-19.4291 56.21868,-23.13457 75.17001,-7.18808 5.19493,4.37125 5.11224,1.82782 -0.13487,-4.14831 -20.65005,-23.51911 -68.56338,-15.64034 -80.63874,13.26007 -2.63148,6.298 -1.41201,5.87937 5.6036,-1.92368 z m 75.14921,3.37501 c 0,-3.44953 -7.217,-10.59546 -9.83452,-9.73767 -3.91083,1.28162 -2.44833,8.96075 2.08129,10.92826 6.24351,2.71195 7.75323,2.48012 7.75323,-1.19059 z M 46.928354,294.26693 c 0.30814,-1.6 -0.40989,-2.31803 -2.31802,-2.31803 -1.90813,0 -2.76443,0.8563 -2.76443,2.76444 0,3.41685 4.41311,3.02923 5.08245,-0.44641 z m 54.917546,1.094 c 0,-1.05672 -0.65228,-2.32445 -1.44951,-2.81716 -1.88269,-1.16357 -4.45252,1.40626 -3.28895,3.28896 1.30695,2.11469 4.73846,1.77302 4.73846,-0.4718 z m 355.27059,0.37395 c 5.6488,-2.57377 3.46812,-12.7972 -2.3518,-11.02568 -5.65128,1.72019 -7.50723,4.39954 -6.01421,8.68241 1.47715,4.23735 3.16894,4.71121 8.36601,2.34327 z M 57.595804,292.92956 c 0.53065,-2.75544 -3.31842,-4.61214 -5.3499,-2.58066 -2.03148,2.03148 -0.17478,5.88055 2.58066,5.3499 1.27713,-0.24595 2.52328,-1.49211 2.76924,-2.76924 z m 33.135656,0.92972 c 1.11128,-2.89595 -1.70992,-5.61935 -3.729266,-3.6 -1.70671,1.70671 -0.6494,5.68962 1.51038,5.68962 0.779356,0 1.777856,-0.94033 2.218886,-2.08962 z m -21.135656,-2.26305 c 0.53065,-2.75544 -3.31842,-4.61214 -5.3499,-2.58066 -2.03148,2.03148 -0.17478,5.88055 2.58066,5.3499 1.27713,-0.24596 2.52328,-1.49211 2.76924,-2.76924 z m 10.66666,0 c 0.53065,-2.75544 -3.31842,-4.61214 -5.34989,-2.58066 -2.03148,2.03148 -0.17479,5.88055 2.58065,5.3499 1.27713,-0.24596 2.52329,-1.49211 2.76924,-2.76924 z M 493.95511,288.2874 c 1.15388,-5.64187 -0.24612,-7.31216 -6.29166,-7.50636 -8.08617,-0.25976 -8.13422,10.01721 -0.0541,11.56327 4.59808,0.87979 5.44707,0.33703 6.34573,-4.05691 z m -16.72242,2.24166 c 2.94186,-4.76002 -0.79666,-10.73145 -6.46092,-10.31987 -6.14603,0.4466 -7.86928,3.57325 -4.96269,9.00427 1.59783,2.98557 9.8072,3.931 11.42361,1.3156 z m -368.73315,-4.24682 c -0.07,-16.12412 -22.588036,-33.43019 -40.426916,-31.06983 -16.34199,2.1623 -32.89339,17.27138 -32.89339,30.027 0,3.20412 0.0172,3.20568 9.00549,0.8129 16.08006,-4.28069 43.88866,-3.7188 57.182326,1.15539 6.9357,2.54302 7.14743,2.51554 7.13249,-0.92546 z M 84.511674,249.11557 c 0.002,-2.08459 -18.65693,-3.44299 -23.22339,-1.69068 -4.63522,1.7787 -1.51796,2.52401 10.55665,2.52401 6.96621,0 12.66624,-0.375 12.66674,-0.83333 z m -3.33244,-17.16667 v -8.66666 h -8.66666 -8.66667 l -0.40906,7.1744 c -0.60749,10.65459 -0.28518,11.01686 9.3918,10.55633 l 8.35059,-0.3974 z m 6,-16.66666 c 0,-2.25229 -28.51719,-3.0659 -29.88506,-0.85264 -1.44531,2.33856 1.33726,2.85264 15.44062,2.85264 11.95062,0 14.44444,-0.3453 14.44444,-2 z m -9.74595,-9.51457 c 1.21233,-3.15928 -1.37649,-6.48543 -5.04777,-6.48543 -3.26455,0 -4.78113,3.04345 -3.36089,6.74455 1.01359,2.64137 7.37081,2.44547 8.40866,-0.25912 z m 0.11104,-14.05684 c -0.97907,-2.93721 -4.85203,-4.52832 -7.28573,-2.99318 -4.39908,2.77487 -3.51532,4.56459 2.25398,4.56459 3.67224,0 5.37798,-0.53271 5.03175,-1.57141 z m -3.03175,-23.76193 c 0,-8.77037 -0.49207,-12.60846 -1.66667,-13 -1.26047,-0.42015 -1.66667,2.74815 -1.66667,13 0,10.25186 0.4062,13.42016 1.66667,13 1.1746,-0.39153 1.66667,-4.22963 1.66667,-13 z m 0.66666,-28.66666 c 0,-3.21345 -0.53279,-6.17191 -1.18398,-6.57437 -1.40455,-0.86806 -3.35578,10.62233 -2.13833,12.5922 1.66825,2.69929 3.32231,-0.29677 3.32231,-6.01783 z m 0.73847,-16.78285 c 1.37403,-2.22322 -1.71628,-4.77268 -3.55562,-2.93333 -1.53857,1.53857 -0.57563,4.38284 1.48382,4.38284 0.64677,0 1.57908,-0.65228 2.0718,-1.44951 z M 441.17922,740.65911 c -21.14954,-7.53886 -28.19077,-48.10022 -11.6953,-67.37146 10.43465,-12.19055 23.40015,-2.3532 14.38473,10.91417 -7.95178,11.7021 -7.6479,19.88704 0.61557,16.58066 13.46557,-5.38786 26.4247,0.59577 28.80835,13.30169 3.27184,17.4404 -15.09635,32.64074 -32.11335,26.57494 z m 13.73334,-16.97687 c 4.92485,-4.92485 -1.33433,-11.65104 -6.49555,-6.9802 -3.98205,3.60371 -2.37997,8.5802 2.76221,8.5802 1.17334,0 2.85334,-0.72 3.73334,-1.6 z m -300.62813,9.47658 c -28.86909,-11.1005 -37.41111,-58.85642 -14.89649,-83.2819 27.31752,-29.63601 73.05773,-0.97347 70.17322,43.97321 -1.96581,30.63151 -28.59493,49.56816 -55.27673,39.30869 z m 20.79944,-28.49394 c 9.14342,-4.72824 6.76478,-26.24627 -3.32538,-30.08254 -11.63665,-4.42425 -19.56565,9.8604 -13.07062,23.54766 3.53359,7.44648 9.80191,9.94482 16.396,6.53488 z m 59.1702,14.61984 c -2.90779,-2.03669 -9.13657,-19.435 -22.23493,-62.1069 -10.50003,-34.20705 -9.10327,-38.31008 16.35305,-48.03761 46.16353,-17.64031 69.56658,38.13772 25.81878,61.53559 -7.63076,4.0812 -7.62874,4.02961 -0.88623,22.67127 7.59255,20.99185 -3.85662,36.57999 -19.05067,25.93765 z m 13.39713,-73.27215 c 7.5186,-6.968 2.14784,-17.33281 -7.51394,-14.50085 -3.81416,1.11797 -4.27164,1.76822 -4.11402,5.84751 0.43885,11.35747 5.02641,14.77145 11.62796,8.65334 z m 56.86539,48.81216 c -5.46064,-5.46064 -17.1891,-44.06638 -24.06888,-79.22579 -2.9763,-15.21053 40.00415,-40.08151 53.24235,-30.80911 12.96848,9.08347 7.73441,22.43248 -11.84416,30.20744 -10.8856,4.32285 -11.31659,4.65442 -10.9095,8.39281 0.66336,6.09166 2.08619,6.54966 10.64856,3.42766 25.01032,-9.11922 31.79549,14.45347 7.03,24.42327 -9.80307,3.94641 -11.10187,5.76999 -8.1019,11.37549 1.25923,2.3529 1.96001,2.19885 12.5298,-2.75432 17.97533,-8.42352 30.23953,-2.22619 26.77851,13.5317 -2.67006,12.1567 -47.28892,29.44671 -55.30478,21.43085 z m 72.66264,-21.3159 c -8.63468,-2.89238 -11.46168,-10.8516 -21.86516,-61.55993 -9.37663,-45.70331 7.01814,-54.64951 37.2009,-20.29955 18.62555,21.19709 18.16741,21.34677 11.99759,-3.91959 -6.47042,-26.49736 -0.24654,-38.26691 16.52935,-31.25749 8.37807,3.50058 26.45641,79.08302 21.66087,90.56036 -6.89901,16.51166 -21.1481,13.94414 -41.04159,-7.39522 -13.98453,-15.00092 -14.67955,-14.5988 -9.80811,5.67474 5.25071,21.85194 -0.51873,32.93825 -14.67385,28.19668 z M 144.60946,316.40003 c -5.82768,-4.08186 -37.43022,-73.96423 -37.43022,-82.76906 0,-8.44257 16.30655,-20.75802 33.22361,-25.09197 20.89715,-5.35361 36.79229,8.40104 34.14977,29.55104 l -0.86906,6.95578 7.1006,2.0642 c 16.04098,4.66324 23.54672,21.15771 17.58694,38.6487 -6.5258,19.15219 -41.6134,39.15027 -53.76164,30.64131 z m 21.85671,-32.58925 c 8.84882,-7.76936 4.88289,-16.59943 -5.99206,-13.34122 -7.90259,2.36768 -8.94658,4.54556 -5.54007,11.55719 3.40897,7.01668 5.24838,7.30124 11.53213,1.78403 z M 146.3747,244.0928 c 6.64961,-6.94069 2.84253,-13.08282 -5.87179,-9.47323 -5.04222,2.08856 -5.61772,4.14031 -2.56795,9.15524 3.12096,5.13201 3.803,5.15771 8.43974,0.31799 z m 69.09359,39.1085 c -6.35084,-4.4483 -22.95572,-52.87911 -22.95572,-66.95404 0,-8.49122 34.03169,-23.58632 42.70731,-18.94327 9.64325,5.16091 5.32823,17.31245 -8.06766,22.71937 -13.6514,5.51005 -15.1708,13.69884 -1.64206,8.84987 18.86487,-6.76154 25.37191,10.05795 7.06892,18.27184 -5.92225,2.65775 -8.06651,4.32015 -8.06651,6.25378 0,4.10045 2.83552,4.25163 11.10981,0.59234 9.76756,-4.31967 13.31631,-4.28289 16.82238,0.17436 7.54653,9.59386 4.94369,13.62201 -15.17378,23.48293 -17.2015,8.43159 -17.56169,8.52333 -21.80269,5.55282 z m 47.9719,-17.6581 c -2.2577,-2.2577 -12.86717,-48.59597 -14.61347,-63.82626 -1.53424,-13.38085 26.43618,-23.27153 41.68584,-14.74061 13.17637,7.37107 14.32999,20.71704 3.28809,38.0391 -1.8676,2.9298 -1.6404,3.33837 5.09545,9.1633 11.32138,9.79033 13.77705,18.70477 6.54754,23.76852 -5.47341,3.83372 -8.78042,2.52487 -17.66311,-6.99075 -9.2319,-9.88971 -11.03569,-10.12307 -8.77245,-1.13491 3.72138,14.77893 -6.34489,24.9446 -15.56789,15.72161 z m 14.89256,-52.35774 c 6.05543,-4.7632 3.517,-11.20318 -4.07289,-10.3329 -4.27052,0.48967 -5.36205,3.76242 -3.17414,9.51707 1.6366,4.30456 2.66469,4.4203 7.24703,0.81583 z m 38.9544,38.52782 c -3.85341,-3.31456 -4.75564,-9.30697 -8.04348,-53.42277 -0.97446,-13.07511 1.69472,-18.34161 9.29594,-18.34161 9.02253,0 10.67785,4.14813 12.04533,30.18489 1.14403,21.78205 0.88963,21.32615 10.79088,19.3377 21.07774,-4.23302 21.2451,16.32616 0.17532,21.53809 -16.50695,4.08324 -20.21018,4.19064 -24.26399,0.7037 z m 75.22541,-3.39029 c -7.37296,-2.66183 -8.04709,-7.80451 -4.72078,-36.01262 3.45799,-29.32466 3.76433,-30.46505 8.89691,-33.11922 9.15276,-4.73307 14.72858,0.98381 23.17154,23.75775 3.28646,8.86485 4.0836,8.05164 5.88146,-6 3.02763,-23.66327 23.34843,-28.03123 20.93349,-4.49965 -6.04283,58.88233 -18.76376,74.1738 -33.41424,40.16632 -2.52738,-5.86667 -5.07969,-10.66667 -5.6718,-10.66667 -0.59212,0 -1.5718,4.8 -2.17707,10.66667 -1.32794,12.87126 -5.7707,18.28109 -12.89951,15.70742 z m -29.94421,-3.23508 -3.63716,-2.861 0.45735,-30.59115 c 0.50919,-34.05855 0.99308,-35.68686 10.60507,-35.68686 8.66797,0 9.18562,1.99458 9.18562,35.39394 v 30.06061 l -3.27273,3.27273 c -4.0311,4.03109 -8.55917,4.17087 -13.33815,0.41173 z"
       id="path3" />
  </g>
</svg>
